Antonio.ufo
<glyph name="D" format="1">
  <advance width="878"/>
  <unicode hex="0044"/>
  <outline>
    <contour>
      <point x="300.0" y="141.0" type="line"/>
      <point x="300.0" y="1623.0" type="line" smooth="yes"/>
      <point x="454" y="1623" type="line" smooth="yes"/>
      <point x="576" y="1623"/>
      <point x="600" y="1510"/>
      <point x="600" y="1263" type="curve" smooth="yes"/>
      <point x="600" y="539" type="line" smooth="yes"/>
      <point x="600" y="238"/>
      <point x="571" y="141"/>
      <point x="448" y="141" type="curve" smooth="yes"/>
    </contour>
    <contour>
      <point x="448" y="0" type="line" smooth="yes"/>
      <point x="706" y="0"/>
      <point x="768" y="177"/>
      <point x="768" y="540" type="curve" smooth="yes"/>
      <point x="768" y="1251" type="line" smooth="yes"/>
      <point x="768" y="1554"/>
      <point x="736" y="1768"/>
      <point x="454" y="1768" type="curve" smooth="yes"/>
      <point x="132.0" y="1768.0" type="line"/>
      <point x="132.0" y="0.0" type="line"/>
    </contour>
  </outline>
</glyph>
<glyph name="F" format="1">
  <advance width="686"/>
  <unicode hex="0046"/>
  <outline>
    <contour>
      <point x="198.0" y="953.0" type="line"/>
      <point x="599.0" y="953.0" type="line"/>
      <point x="599.0" y="815.0" type="line"/>
      <point x="198.0" y="815.0" type="line"/>
    </contour>
    <contour>
      <point x="300.0" y="1761.0" type="line"/>
      <point x="300.0" y="0.0" type="line"/>
      <point x="132.0" y="0.0" type="line"/>
      <point x="132.0" y="1761.0" type="line"/>
    </contour>
    <contour>
      <point x="204.0" y="1761.0" type="line"/>
      <point x="617.0" y="1761.0" type="line"/>
      <point x="617.0" y="1625.0" type="line"/>
      <point x="204.0" y="1625.0" type="line"/>
    </contour>
  </outline>
</glyph>
<glyph name="G" format="1">
  <advance width="845.888888889"/>
  <unicode hex="0047"/>
  <outline>
    <contour>
      <point x="438" y="901" type="line"/>
      <point x="438" y="763" type="line"/>
      <point x="748" y="763" type="line"/>
      <point x="748" y="901" type="line"/>
    </contour>
    <contour>
      <point x="580" y="1107" type="line"/>
      <point x="748" y="1107" type="line"/>
      <point x="748" y="1251" type="line" smooth="yes"/>
      <point x="748" y="1554"/>
      <point x="724" y="1781"/>
      <point x="442" y="1781" type="curve" smooth="yes"/>
      <point x="160" y="1781"/>
      <point x="110" y="1554"/>
      <point x="110" y="1251" type="curve" smooth="yes"/>
      <point x="110" y="529" type="line" smooth="yes"/>
      <point x="110" y="139"/>
      <point x="205" y="-16"/>
      <point x="404" y="-16" type="curve" smooth="yes"/>
      <point x="670" y="-16"/>
      <point x="678" y="235"/>
      <point x="748" y="697" type="curve" smooth="yes"/>
      <point x="750" y="711"/>
      <point x="748" y="723"/>
      <point x="748" y="730" type="curve" smooth="yes"/>
      <point x="748" y="818" type="line"/>
      <point x="586" y="818" type="line"/>
      <point x="586" y="539" type="line" smooth="yes"/>
      <point x="586" y="238"/>
      <point x="556" y="120"/>
      <point x="433" y="120" type="curve" smooth="yes"/>
      <point x="304" y="120"/>
      <point x="278" y="237"/>
      <point x="278" y="539" type="curve" smooth="yes"/>
      <point x="278" y="1264" type="line" smooth="yes"/>
      <point x="278" y="1509"/>
      <point x="311" y="1636"/>
      <point x="439" y="1636" type="curve" smooth="yes"/>
      <point x="561" y="1636"/>
      <point x="580" y="1510"/>
      <point x="580" y="1263" type="curve" smooth="yes"/>
    </contour>
    <contour>
      <point x="748" y="750" type="line"/>
      <point x="616" y="170" type="line"/>
      <point x="646" y="0" type="line"/>
      <point x="748" y="0" type="line"/>
    </contour>
  </outline>
</glyph>
<glyph name="L" format="1">
  <advance width="622.0"/>
  <unicode hex="004C"/>
  <outline>
    <contour>
      <point x="204.0" y="136.0" type="line"/>
      <point x="617.0" y="136.0" type="line"/>
      <point x="617.0" y="0.0" type="line"/>
      <point x="204.0" y="0.0" type="line"/>
    </contour>
    <contour>
      <point x="300" y="1761" type="line"/>
      <point x="300" y="0" type="line"/>
      <point x="132" y="0" type="line"/>
      <point x="132" y="1761" type="line"/>
    </contour>
  </outline>
</glyph>
<glyph name="O" format="1">
  <advance width="864"/>
  <unicode hex="004F"/>
  <outline>
    <contour>
      <point x="278" y="1264" type="line" smooth="yes"/>
      <point x="278" y="1509"/>
      <point x="312" y="1636"/>
      <point x="440" y="1636" type="curve" smooth="yes"/>
      <point x="562" y="1636"/>
      <point x="586" y="1510"/>
      <point x="586" y="1263" type="curve" smooth="yes"/>
      <point x="586" y="539" type="line" smooth="yes"/>
      <point x="586" y="238"/>
      <point x="557" y="120"/>
      <point x="434" y="120" type="curve" smooth="yes"/>
      <point x="305" y="120"/>
      <point x="278" y="237"/>
      <point x="278" y="539" type="curve" smooth="yes"/>
    </contour>
    <contour>
      <point x="434" y="-21" type="curve" smooth="yes"/>
      <point x="692" y="-21"/>
      <point x="754" y="177"/>
      <point x="754" y="540" type="curve" smooth="yes"/>
      <point x="754" y="1251" type="line" smooth="yes"/>
      <point x="754" y="1554"/>
      <point x="722" y="1781"/>
      <point x="440" y="1781" type="curve" smooth="yes"/>
      <point x="158" y="1781"/>
      <point x="110" y="1554"/>
      <point x="110" y="1251" type="curve" smooth="yes"/>
      <point x="110" y="540" type="line" smooth="yes"/>
      <point x="110" y="177"/>
      <point x="176" y="-21"/>
    </contour>
  </outline>
</glyph>
<glyph name="P" format="1">
  <advance width="834"/>
  <unicode hex="0050"/>
  <outline>
    <contour>
      <point x="300.0" y="1761.0" type="line"/>
      <point x="132.0" y="1761.0" type="line"/>
      <point x="132.0" y="0.0" type="line"/>
      <point x="300.0" y="0.0" type="line"/>
    </contour>
    <contour>
      <point x="300" y="831" type="line"/>
      <point x="300.0" y="1623.0" type="line" smooth="yes"/>
      <point x="454.0" y="1623.0" type="line" smooth="yes"/>
      <point x="576.0" y="1623.0"/>
      <point x="600.0" y="1510.0"/>
      <point x="600.0" y="1263.0" type="curve" smooth="yes"/>
      <point x="600" y="1229" type="line" smooth="yes"/>
      <point x="600" y="928"/>
      <point x="571" y="831"/>
      <point x="448" y="831" type="curve" smooth="yes"/>
    </contour>
    <contour>
      <point x="448" y="690" type="line" smooth="yes"/>
      <point x="706" y="690"/>
      <point x="768" y="867"/>
      <point x="768" y="1230" type="curve" smooth="yes"/>
      <point x="768.0" y="1251.0" type="line" smooth="yes"/>
      <point x="768.0" y="1554.0"/>
      <point x="736.0" y="1768.0"/>
      <point x="454.0" y="1768.0" type="curve" smooth="yes"/>
      <point x="132.0" y="1768.0" type="line"/>
      <point x="132" y="690" type="line"/>
    </contour>
  </outline>
</glyph>
<glyph name="T" format="1">
  <advance width="515"/>
  <unicode hex="0054"/>
  <outline>
    <contour>
      <point x="15" y="1761" type="line"/>
      <point x="500" y="1761" type="line"/>
      <point x="500" y="1625" type="line"/>
      <point x="15" y="1625" type="line"/>
    </contour>
    <contour>
      <point x="350" y="1761" type="line"/>
      <point x="350" y="0" type="line"/>
      <point x="182" y="0" type="line"/>
      <point x="182" y="1761" type="line"/>
    </contour>
  </outline>
</glyph>
<glyph name="m" format="1">
  <advance width="1304"/>
  <unicode hex="006D"/>
  <outline>
    <contour>
      <point x="531" y="1368"/>
      <point x="573" y="1331"/>
      <point x="573" y="1214" type="curve" smooth="yes"/>
      <point x="573" y="0" type="line"/>
      <point x="741" y="0" type="line"/>
      <point x="741" y="1206" type="line" smooth="yes"/>
      <point x="741" y="1408"/>
      <point x="666" y="1506"/>
      <point x="538" y="1518" type="curve" smooth="yes"/>
      <point x="530" y="1519"/>
      <point x="522" y="1519"/>
      <point x="514" y="1519" type="curve" smooth="yes"/>
      <point x="396" y="1519"/>
      <point x="309.0" y="1437.0"/>
      <point x="283.0" y="1349.0" type="curve"/>
      <point x="283.0" y="1500.0" type="line"/>
      <point x="115.0" y="1500.0" type="line"/>
      <point x="115.0" y="0.0" type="line"/>
      <point x="283.0" y="0.0" type="line"/>
      <point x="283.0" y="1205.0" type="line"/>
      <point x="303.0" y="1288.0"/>
      <point x="390" y="1368"/>
      <point x="473" y="1368" type="curve" smooth="yes"/>
    </contour>
    <contour>
      <point x="1031" y="1214" type="curve" smooth="yes"/>
      <point x="1031" y="0" type="line"/>
      <point x="1199" y="0" type="line"/>
      <point x="1199" y="1206" type="line" smooth="yes"/>
      <point x="1199" y="1408"/>
      <point x="1124" y="1506"/>
      <point x="996" y="1518" type="curve" smooth="yes"/>
      <point x="988" y="1519"/>
      <point x="980" y="1519"/>
      <point x="972" y="1519" type="curve" smooth="yes"/>
      <point x="854" y="1519"/>
      <point x="756" y="1449"/>
      <point x="711" y="1352" type="curve" smooth="yes"/>
      <point x="685" y="1296" type="line"/>
      <point x="740" y="1205" type="line"/>
      <point x="760" y="1288"/>
      <point x="848" y="1368"/>
      <point x="931" y="1368" type="curve" smooth="yes"/>
      <point x="989" y="1368"/>
      <point x="1031" y="1331"/>
    </contour>
  </outline>
</glyph>
<glyph name="n" format="1">
  <advance width="807"/>
  <unicode hex="006E"/>
  <outline>
    <contour>
      <point x="590" y="0" type="line"/>
      <point x="686" y="0" type="line"/>
      <point x="686" y="1263" type="line" smooth="yes"/>
      <point x="686" y="1428"/>
      <point x="623" y="1519"/>
      <point x="493" y="1519" type="curve" smooth="yes"/>
      <point x="375" y="1519"/>
      <point x="285" y="1464"/>
      <point x="222" y="1369" type="curve"/>
      <point x="222" y="1500" type="line"/>
      <point x="126" y="1500" type="line"/>
      <point x="126" y="0" type="line"/>
      <point x="222" y="0" type="line"/>
      <point x="222" y="1287" type="line"/>
      <point x="288" y="1394"/>
      <point x="390" y="1437"/>
      <point x="469" y="1437" type="curve" smooth="yes"/>
      <point x="475" y="1437"/>
      <point x="480" y="1436"/>
      <point x="485" y="1436" type="curve" smooth="yes"/>
      <point x="553" y="1431"/>
      <point x="590" y="1383"/>
      <point x="590" y="1266" type="curve" smooth="yes"/>
    </contour>
  </outline>
</glyph>
<glyph name="copyright" format="1">
  <advance width="1466"/>
  <unicode hex="00A9"/>
  <outline>
    <contour>
      <point x="692" y="1066" type="line" smooth="yes"/>
      <point x="692" y="1104"/>
      <point x="699" y="1130"/>
      <point x="736" y="1130" type="curve" smooth="yes"/>
      <point x="767" y="1130"/>
      <point x="782" y="1104"/>
      <point x="782" y="1053" type="curve" smooth="yes"/>
      <point x="782" y="952" type="line"/>
      <point x="947" y="952" type="line"/>
      <point x="947" y="1105" type="line" smooth="yes"/>
      <point x="947" y="1239"/>
      <point x="870" y="1305"/>
      <point x="736" y="1305" type="curve" smooth="yes"/>
      <point x="571" y="1305"/>
      <point x="497" y="1217"/>
      <point x="497" y="1049" type="curve" smooth="yes"/>
      <point x="497" y="648" type="line" smooth="yes"/>
      <point x="497" y="507"/>
      <point x="593" y="424"/>
      <point x="732" y="424" type="curve" smooth="yes"/>
      <point x="894" y="424"/>
      <point x="951" y="497"/>
      <point x="951" y="643" type="curve" smooth="yes"/>
      <point x="951" y="806" type="line"/>
      <point x="782" y="806" type="line"/>
      <point x="782" y="657" type="line" smooth="yes"/>
      <point x="782" y="614"/>
      <point x="767" y="592"/>
      <point x="736" y="592" type="curve" smooth="yes"/>
      <point x="708" y="592"/>
      <point x="692" y="627"/>
      <point x="692" y="657" type="curve" smooth="yes"/>
    </contour>
    <contour>
      <point x="733" y="205" type="curve" smooth="yes"/>
      <point x="1106" y="205"/>
      <point x="1390" y="489"/>
      <point x="1390" y="862" type="curve" smooth="yes"/>
      <point x="1390" y="1235"/>
      <point x="1106" y="1519"/>
      <point x="733" y="1519" type="curve" smooth="yes"/>
      <point x="360" y="1519"/>
      <point x="76" y="1235"/>
      <point x="76" y="862" type="curve" smooth="yes"/>
      <point x="76" y="489"/>
      <point x="360" y="205"/>
    </contour>
    <contour>
      <point x="733" y="1390" type="curve" smooth="yes"/>
      <point x="1022" y="1390"/>
      <point x="1231" y="1153"/>
      <point x="1231" y="862" type="curve" smooth="yes"/>
      <point x="1231" y="571"/>
      <point x="1022" y="334"/>
      <point x="733" y="334" type="curve" smooth="yes"/>
      <point x="444" y="334"/>
      <point x="235" y="571"/>
      <point x="235" y="862" type="curve" smooth="yes"/>
      <point x="235" y="1153"/>
      <point x="444" y="1390"/>
    </contour>
  </outline>
</glyph>
<glyph name="cedilla" format="1">
  <advance width="1015"/>
  <unicode hex="00B8"/>
  <outline>
    <contour>
      <point x="464.0" y="-671.0" type="curve" smooth="yes"/>
      <point x="666.467773438" y="-671"/>
      <point x="763.63671875" y="-545.439453125"/>
      <point x="763.63671875" y="-411.274414062" type="curve" smooth="yes"/>
      <point x="763.63671875" y="-283.938476562"/>
      <point x="666.108398438" y="-178.8515625"/>
      <point x="498.0" y="-136.0" type="curve"/>
      <point x="478.0" y="0.0" type="line"/>
      <point x="377.0" y="0.0" type="line"/>
      <point x="337.0" y="-196.0" type="line"/>
      <point x="419.0" y="-214.0"/>
      <point x="497.0" y="-269.0"/>
      <point x="497.0" y="-359.0" type="curve" smooth="yes"/>
      <point x="497.0" y="-434.0"/>
      <point x="455.0" y="-501.0"/>
      <point x="266.0" y="-501.0" type="curve"/>
      <point x="266.0" y="-631.0" type="line"/>
      <point x="330.0" y="-658.0"/>
      <point x="396.0" y="-671.0"/>
    </contour>
  </outline>
</glyph>
<glyph name="Igrave" format="1">
  <advance width="616"/>
  <unicode hex="00CC"/>
  <outline>
    <contour>
      <point x="545.5" y="1944" type="line"/>
      <point x="545.5" y="2167" type="line"/>
      <point x="70.5" y="2385" type="line"/>
      <point x="70.5" y="2038" type="line"/>
    </contour>
    <contour>
      <point x="488.0" y="1761" type="line"/>
      <point x="128.0" y="1761" type="line"/>
      <point x="128.0" y="0" type="line"/>
      <point x="488.0" y="0" type="line"/>
    </contour>
  </outline>
</glyph>
<glyph name="Ucircumflex" format="1">
  <advance width="1110"/>
  <unicode hex="00DB"/>
  <outline>
    <contour>
      <point x="759" y="2347" type="line"/>
      <point x="351" y="2347" type="line"/>
      <point x="110" y="1944" type="line"/>
      <point x="469" y="1944" type="line"/>
      <point x="555" y="2229" type="line"/>
      <point x="641" y="1944" type="line"/>
      <point x="1000" y="1944" type="line"/>
    </contour>
    <contour>
      <point x="556" y="-21" type="curve" smooth="yes"/>
      <point x="849" y="-21"/>
      <point x="1000" y="132"/>
      <point x="1000" y="452" type="curve" smooth="yes"/>
      <point x="1000" y="1761" type="line"/>
      <point x="640" y="1761" type="line"/>
      <point x="640" y="457" type="line" smooth="yes"/>
      <point x="640" y="368"/>
      <point x="635" y="294"/>
      <point x="554" y="294" type="curve" smooth="yes"/>
      <point x="474" y="294"/>
      <point x="470" y="369"/>
      <point x="470" y="457" type="curve" smooth="yes"/>
      <point x="470" y="1761" type="line"/>
      <point x="110" y="1761" type="line"/>
      <point x="110" y="452" type="line" smooth="yes"/>
      <point x="110" y="132"/>
      <point x="263" y="-21"/>
    </contour>
  </outline>
</glyph>
<glyph name="Udieresis" format="1">
  <advance width="1110"/>
  <unicode hex="00DC"/>
  <outline>
    <contour>
      <point x="618" y="1944" type="line"/>
      <point x="976" y="1944" type="line"/>
      <point x="976" y="2242" type="line"/>
      <point x="618" y="2242" type="line"/>
    </contour>
    <contour>
      <point x="134" y="1944" type="line"/>
      <point x="492" y="1944" type="line"/>
      <point x="492" y="2242" type="line"/>
      <point x="134" y="2242" type="line"/>
    </contour>
    <contour>
      <point x="556" y="-21" type="curve" smooth="yes"/>
      <point x="849" y="-21"/>
      <point x="1000" y="132"/>
      <point x="1000" y="452" type="curve" smooth="yes"/>
      <point x="1000" y="1761" type="line"/>
      <point x="640" y="1761" type="line"/>
      <point x="640" y="457" type="line" smooth="yes"/>
      <point x="640" y="368"/>
      <point x="635" y="294"/>
      <point x="554" y="294" type="curve" smooth="yes"/>
      <point x="474" y="294"/>
      <point x="470" y="369"/>
      <point x="470" y="457" type="curve" smooth="yes"/>
      <point x="470" y="1761" type="line"/>
      <point x="110" y="1761" type="line"/>
      <point x="110" y="452" type="line" smooth="yes"/>
      <point x="110" y="132"/>
      <point x="263" y="-21"/>
    </contour>
  </outline>
</glyph>
<glyph name="aring" format="1">
  <advance width="1092"/>
  <unicode hex="00E5"/>
  <outline>
    <contour>
      <point x="543" y="1681" type="curve" smooth="yes"/>
      <point x="714" y="1681"/>
      <point x="826" y="1792"/>
      <point x="826" y="1961" type="curve" smooth="yes"/>
      <point x="826" y="2130"/>
      <point x="714" y="2241"/>
      <point x="543" y="2241" type="curve" smooth="yes"/>
      <point x="372" y="2241"/>
      <point x="261" y="2130"/>
      <point x="261" y="1961" type="curve" smooth="yes"/>
      <point x="261" y="1791"/>
      <point x="372" y="1681"/>
    </contour>
    <contour>
      <point x="544.26953125" y="1808.90722656" type="curve" smooth="yes"/>
      <point x="453.666015625" y="1808.90722656"/>
      <point x="408.57421875" y="1884.86914062"/>
      <point x="408.57421875" y="1960.87304688" type="curve" smooth="yes"/>
      <point x="408.57421875" y="2036.96191406"/>
      <point x="453.766601562" y="2113.09277344"/>
      <point x="543.73046875" y="2113.09277344" type="curve" smooth="yes"/>
      <point x="634.333984375" y="2113.09277344"/>
      <point x="679.42578125" y="2037.13085938"/>
      <point x="679.42578125" y="1961.12695312" type="curve" smooth="yes"/>
      <point x="679.42578125" y="1885.03808594"/>
      <point x="634.233398438" y="1808.90722656"/>
    </contour>
    <contour>
      <point x="622.0" y="379.0" type="line" smooth="yes"/>
      <point x="622.0" y="322.0"/>
      <point x="603.0" y="262.0"/>
      <point x="545.0" y="262.0" type="curve" smooth="yes"/>
      <point x="492.0" y="262.0"/>
      <point x="465.0" y="306.0"/>
      <point x="465.0" y="395.0" type="curve" smooth="yes"/>
      <point x="465.0" y="588.0" type="line" smooth="yes"/>
      <point x="465.0" y="705.0"/>
      <point x="523.0" y="757.0"/>
      <point x="622.0" y="797.0" type="curve"/>
    </contour>
    <contour>
      <point x="404.0" y="-18.0" type="curve" smooth="yes"/>
      <point x="507.0" y="-18.0"/>
      <point x="594.0" y="53.0"/>
      <point x="629.0" y="178.0" type="curve"/>
      <point x="629.0" y="0.0" type="line"/>
      <point x="987.0" y="0.0" type="line"/>
      <point x="987.0" y="1143.0" type="line" smooth="yes"/>
      <point x="987.0" y="1387.0"/>
      <point x="803.0" y="1518.0"/>
      <point x="563.0" y="1518.0" type="curve" smooth="yes"/>
      <point x="257.0" y="1518.0"/>
      <point x="122.0" y="1403.0"/>
      <point x="122.0" y="1105.0" type="curve" smooth="yes"/>
      <point x="122.0" y="1056.0" type="line"/>
      <point x="471.0" y="1056.0" type="line"/>
      <point x="471.0" y="1146.0" type="line" smooth="yes"/>
      <point x="471.0" y="1201.0"/>
      <point x="492.0" y="1243.0"/>
      <point x="557.0" y="1239.0" type="curve" smooth="yes"/>
      <point x="602.0" y="1236.0"/>
      <point x="622.0" y="1213.0"/>
      <point x="622.0" y="1123.0" type="curve" smooth="yes"/>
      <point x="622.0" y="969.0" type="line"/>
      <point x="286.0" y="854.0"/>
      <point x="100.0" y="839.0"/>
      <point x="100.0" y="430.0" type="curve" smooth="yes"/>
      <point x="100.0" y="174.0"/>
      <point x="154.0" y="-18.0"/>
    </contour>
  </outline>
</glyph>
<glyph name="icircumflex" format="1">
  <advance width="586"/>
  <unicode hex="00EE"/>
  <outline>
    <contour>
      <point x="497" y="2084" type="line"/>
      <point x="89" y="2084" type="line"/>
      <point x="-152" y="1681" type="line"/>
      <point x="207" y="1681" type="line"/>
      <point x="293" y="1966" type="line"/>
      <point x="379" y="1681" type="line"/>
      <point x="738" y="1681" type="line"/>
    </contour>
    <contour>
      <point x="471" y="1500" type="line"/>
      <point x="115" y="1500" type="line"/>
      <point x="115" y="0" type="line"/>
      <point x="471" y="0" type="line"/>
    </contour>
  </outline>
</glyph>
<glyph name="ocircumflex" format="1">
  <advance width="1076"/>
  <unicode hex="00F4"/>
  <outline>
    <contour>
      <point x="742" y="2084" type="line"/>
      <point x="334" y="2084" type="line"/>
      <point x="93" y="1681" type="line"/>
      <point x="452" y="1681" type="line"/>
      <point x="538" y="1966" type="line"/>
      <point x="624" y="1681" type="line"/>
      <point x="983" y="1681" type="line"/>
    </contour>
    <contour>
      <point x="538" y="260" type="curve" smooth="yes"/>
      <point x="478" y="260"/>
      <point x="454" y="308"/>
      <point x="454" y="375" type="curve" smooth="yes"/>
      <point x="454" y="1108" type="line" smooth="yes"/>
      <point x="454" y="1195"/>
      <point x="482" y="1239"/>
      <point x="538" y="1239" type="curve" smooth="yes"/>
      <point x="594" y="1239"/>
      <point x="622" y="1195"/>
      <point x="622" y="1108" type="curve" smooth="yes"/>
      <point x="622" y="375" type="line" smooth="yes"/>
      <point x="622" y="308"/>
      <point x="598" y="260"/>
    </contour>
    <contour>
      <point x="978" y="1051" type="line" smooth="yes"/>
      <point x="978" y="1334"/>
      <point x="819" y="1518"/>
      <point x="538" y="1518" type="curve" smooth="yes"/>
      <point x="258" y="1518"/>
      <point x="98" y="1333"/>
      <point x="98" y="1051" type="curve" smooth="yes"/>
      <point x="98" y="449" type="line" smooth="yes"/>
      <point x="98" y="138"/>
      <point x="239" y="-18"/>
      <point x="538" y="-18" type="curve" smooth="yes"/>
      <point x="839" y="-18"/>
      <point x="978" y="143"/>
      <point x="978" y="449" type="curve" smooth="yes"/>
    </contour>
  </outline>
</glyph>
<glyph name="uacute" format="1">
  <advance width="1099"/>
  <unicode hex="00FA"/>
  <outline>
    <contour>
      <point x="308.5" y="1681" type="line"/>
      <point x="783.5" y="1775" type="line"/>
      <point x="783.5" y="2122" type="line"/>
      <point x="308.5" y="1904" type="line"/>
    </contour>
    <contour>
      <point x="545.0" y="264" type="curve" smooth="yes"/>
      <point x="457.0" y="264"/>
      <point x="465.0" y="342"/>
      <point x="465.0" y="455" type="curve" smooth="yes"/>
      <point x="465.0" y="1500" type="line"/>
      <point x="105.0" y="1500" type="line"/>
      <point x="105.0" y="383" type="line" smooth="yes"/>
      <point x="105.0" y="143"/>
      <point x="157.0" y="-18"/>
      <point x="398.0" y="-18" type="curve" smooth="yes"/>
      <point x="534.0" y="-18"/>
      <point x="583.0" y="45"/>
      <point x="629.0" y="160" type="curve"/>
      <point x="629.0" y="0" type="line"/>
      <point x="987.0" y="0" type="line"/>
      <point x="987.0" y="1500" type="line"/>
      <point x="631.0" y="1500" type="line"/>
      <point x="629.0" y="443" type="line"/>
      <point x="629.0" y="360"/>
      <point x="628.0" y="264"/>
    </contour>
  </outline>
</glyph>
<glyph name="Aogonek" format="1">
  <advance width="1103"/>
  <unicode hex="0104"/>
  <outline>
    <contour>
      <point x="822.5" y="-278.1328125" type="curve" smooth="yes"/>
      <point x="822.5" y="-168.1328125"/>
      <point x="898.5" y="-69.1328125"/>
      <point x="972.5" y="20.8671875" type="curve"/>
      <point x="831.5" y="20.8671875" type="line"/>
      <point x="655.5" y="-78.1328125"/>
      <point x="577.5" y="-218.1328125"/>
      <point x="577.5" y="-339.1328125" type="curve" smooth="yes"/>
      <point x="577.5" y="-513.1328125"/>
      <point x="694.5" y="-605.1328125"/>
      <point x="884.5" y="-605.1328125" type="curve" smooth="yes"/>
      <point x="952.5" y="-605.1328125"/>
      <point x="1030.5" y="-583.1328125"/>
      <point x="1053.5" y="-570.1328125" type="curve"/>
      <point x="1053.5" y="-397.1328125" type="line"/>
      <point x="1029.5" y="-402.1328125"/>
      <point x="1003.5" y="-405.1328125"/>
      <point x="978.5" y="-405.1328125" type="curve" smooth="yes"/>
      <point x="898.5" y="-405.1328125"/>
      <point x="822.5" y="-375.1328125"/>
    </contour>
    <contour>
      <point x="477.0" y="565.0" type="line"/>
      <point x="550.0" y="1481.0" type="line"/>
      <point x="557.0" y="1481.0" type="line"/>
      <point x="637.0" y="565.0" type="line"/>
    </contour>
    <contour>
      <point x="68.0" y="0.0" type="line"/>
      <point x="430.0" y="0.0" type="line"/>
      <point x="452.0" y="281.0" type="line"/>
      <point x="664.0" y="281.0" type="line"/>
      <point x="689.0" y="0.0" type="line"/>
      <point x="1035.0" y="0.0" type="line"/>
      <point x="825.0" y="1761.0" type="line"/>
      <point x="274.0" y="1761.0" type="line"/>
    </contour>
  </outline>
</glyph>
<glyph name="aogonek" format="1">
  <advance width="1092"/>
  <unicode hex="0105"/>
  <outline>
    <contour>
      <point x="778.5" y="-296.133789062" type="curve" smooth="yes"/>
      <point x="778.5" y="-186.133789062"/>
      <point x="854.5" y="-87.1337890625"/>
      <point x="928.5" y="2.8662109375" type="curve"/>
      <point x="787.5" y="2.8662109375" type="line"/>
      <point x="611.5" y="-96.1337890625"/>
      <point x="533.5" y="-236.133789062"/>
      <point x="533.5" y="-357.133789062" type="curve" smooth="yes"/>
      <point x="533.5" y="-531.133789062"/>
      <point x="650.5" y="-623.133789062"/>
      <point x="840.5" y="-623.133789062" type="curve" smooth="yes"/>
      <point x="908.5" y="-623.133789062"/>
      <point x="986.5" y="-601.133789062"/>
      <point x="1009.5" y="-588.133789062" type="curve"/>
      <point x="1009.5" y="-415.133789062" type="line"/>
      <point x="985.5" y="-420.133789062"/>
      <point x="959.5" y="-423.133789062"/>
      <point x="934.5" y="-423.133789062" type="curve" smooth="yes"/>
      <point x="854.5" y="-423.133789062"/>
      <point x="778.5" y="-393.133789062"/>
    </contour>
    <contour>
      <point x="622.0" y="379.0" type="line" smooth="yes"/>
      <point x="622.0" y="322.0"/>
      <point x="603.0" y="262.0"/>
      <point x="545.0" y="262.0" type="curve" smooth="yes"/>
      <point x="492.0" y="262.0"/>
      <point x="465.0" y="306.0"/>
      <point x="465.0" y="395.0" type="curve" smooth="yes"/>
      <point x="465.0" y="588.0" type="line" smooth="yes"/>
      <point x="465.0" y="705.0"/>
      <point x="523.0" y="757.0"/>
      <point x="622.0" y="797.0" type="curve"/>
    </contour>
    <contour>
      <point x="404.0" y="-18.0" type="curve" smooth="yes"/>
      <point x="507.0" y="-18.0"/>
      <point x="594.0" y="53.0"/>
      <point x="629.0" y="178.0" type="curve"/>
      <point x="629.0" y="0.0" type="line"/>
      <point x="987.0" y="0.0" type="line"/>
      <point x="987.0" y="1143.0" type="line" smooth="yes"/>
      <point x="987.0" y="1387.0"/>
      <point x="803.0" y="1518.0"/>
      <point x="563.0" y="1518.0" type="curve" smooth="yes"/>
      <point x="257.0" y="1518.0"/>
      <point x="122.0" y="1403.0"/>
      <point x="122.0" y="1105.0" type="curve" smooth="yes"/>
      <point x="122.0" y="1056.0" type="line"/>
      <point x="471.0" y="1056.0" type="line"/>
      <point x="471.0" y="1146.0" type="line" smooth="yes"/>
      <point x="471.0" y="1201.0"/>
      <point x="492.0" y="1243.0"/>
      <point x="557.0" y="1239.0" type="curve" smooth="yes"/>
      <point x="602.0" y="1236.0"/>
      <point x="622.0" y="1213.0"/>
      <point x="622.0" y="1123.0" type="curve" smooth="yes"/>
      <point x="622.0" y="969.0" type="line"/>
      <point x="286.0" y="854.0"/>
      <point x="100.0" y="839.0"/>
      <point x="100.0" y="430.0" type="curve" smooth="yes"/>
      <point x="100.0" y="174.0"/>
      <point x="154.0" y="-18.0"/>
    </contour>
  </outline>
</glyph>
<glyph name="Eogonek" format="1">
  <advance width="894"/>
  <unicode hex="0118"/>
  <outline>
    <contour>
      <point x="455" y="-278.1328125" type="curve" smooth="yes"/>
      <point x="455" y="-168.1328125"/>
      <point x="531" y="-69.1328125"/>
      <point x="605" y="20.8671875" type="curve"/>
      <point x="464" y="20.8671875" type="line"/>
      <point x="288" y="-78.1328125"/>
      <point x="210" y="-218.1328125"/>
      <point x="210" y="-339.1328125" type="curve" smooth="yes"/>
      <point x="210" y="-513.1328125"/>
      <point x="327" y="-605.1328125"/>
      <point x="517" y="-605.1328125" type="curve" smooth="yes"/>
      <point x="585" y="-605.1328125"/>
      <point x="663" y="-583.1328125"/>
      <point x="686" y="-570.1328125" type="curve"/>
      <point x="686" y="-397.1328125" type="line"/>
      <point x="662" y="-402.1328125"/>
      <point x="636" y="-405.1328125"/>
      <point x="611" y="-405.1328125" type="curve" smooth="yes"/>
      <point x="531" y="-405.1328125"/>
      <point x="455" y="-375.1328125"/>
    </contour>
    <contour>
      <point x="806" y="318.0" type="line"/>
      <point x="482" y="318.0" type="line"/>
      <point x="482" y="746.0" type="line"/>
      <point x="769" y="746.0" type="line"/>
      <point x="769" y="1065.0" type="line"/>
      <point x="482" y="1065.0" type="line"/>
      <point x="482" y="1440.0" type="line"/>
      <point x="783" y="1440.0" type="line"/>
      <point x="783" y="1761.0" type="line"/>
      <point x="122" y="1761.0" type="line"/>
      <point x="122" y="0.0" type="line"/>
      <point x="806" y="0.0" type="line"/>
    </contour>
  </outline>
</glyph>
<glyph name="eogonek" format="1">
  <advance width="1064"/>
  <unicode hex="0119"/>
  <outline>
    <contour>
      <point x="459.5" y="-296.133789062" type="curve" smooth="yes"/>
      <point x="459.5" y="-186.133789062"/>
      <point x="535.5" y="-87.1337890625"/>
      <point x="609.5" y="2.8662109375" type="curve"/>
      <point x="468.5" y="2.8662109375" type="line"/>
      <point x="292.5" y="-96.1337890625"/>
      <point x="214.5" y="-236.133789062"/>
      <point x="214.5" y="-357.133789062" type="curve" smooth="yes"/>
      <point x="214.5" y="-531.133789062"/>
      <point x="331.5" y="-623.133789062"/>
      <point x="521.5" y="-623.133789062" type="curve" smooth="yes"/>
      <point x="589.5" y="-623.133789062"/>
      <point x="667.5" y="-601.133789062"/>
      <point x="690.5" y="-588.133789062" type="curve"/>
      <point x="690.5" y="-415.133789062" type="line"/>
      <point x="666.5" y="-420.133789062"/>
      <point x="640.5" y="-423.133789062"/>
      <point x="615.5" y="-423.133789062" type="curve" smooth="yes"/>
      <point x="535.5" y="-423.133789062"/>
      <point x="459.5" y="-393.133789062"/>
    </contour>
    <contour>
      <point x="454.0" y="1081.0" type="line" smooth="yes"/>
      <point x="454.0" y="1170.0"/>
      <point x="457.0" y="1249.0"/>
      <point x="544.0" y="1249.0" type="curve" smooth="yes"/>
      <point x="597.0" y="1249.0"/>
      <point x="624.0" y="1195.0"/>
      <point x="624.0" y="1087.0" type="curve" smooth="yes"/>
      <point x="624.0" y="895.0" type="line"/>
      <point x="454.0" y="895.0" type="line"/>
    </contour>
    <contour>
      <point x="624.0" y="579.0" type="line"/>
      <point x="624.0" y="431.0" type="line" smooth="yes"/>
      <point x="624.0" y="343.0"/>
      <point x="628.0" y="260.0"/>
      <point x="542.0" y="260.0" type="curve" smooth="yes"/>
      <point x="462.0" y="260.0"/>
      <point x="456.0" y="346.0"/>
      <point x="456.0" y="427.0" type="curve" smooth="yes"/>
      <point x="456.0" y="717.0" type="line"/>
      <point x="976.0" y="717.0" type="line"/>
      <point x="976.0" y="1092.0" type="line" smooth="yes"/>
      <point x="976.0" y="1376.0"/>
      <point x="836.0" y="1518.0"/>
      <point x="548.0" y="1518.0" type="curve" smooth="yes"/>
      <point x="268.0" y="1518.0"/>
      <point x="98.0" y="1371.0"/>
      <point x="98.0" y="1092.0" type="curve" smooth="yes"/>
      <point x="98.0" y="489.0" type="line" smooth="yes"/>
      <point x="98.0" y="170.0"/>
      <point x="209.0" y="-18.0"/>
      <point x="530.0" y="-18.0" type="curve" smooth="yes"/>
      <point x="870.0" y="-18.0"/>
      <point x="976.0" y="138.0"/>
      <point x="976.0" y="475.0" type="curve" smooth="yes"/>
      <point x="976.0" y="579.0" type="line"/>
    </contour>
  </outline>
</glyph>
<glyph name="hbar" format="1">
  <advance width="1099"/>
  <unicode hex="0127"/>
  <outline>
    <contour>
      <point x="558" y="1094" type="curve" smooth="yes"/>
      <point x="616" y="1094"/>
      <point x="638" y="1034"/>
      <point x="638" y="975" type="curve" smooth="yes"/>
      <point x="638" y="0" type="line"/>
      <point x="994" y="0" type="line"/>
      <point x="994" y="1012" type="line" smooth="yes"/>
      <point x="994" y="1234"/>
      <point x="902" y="1373"/>
      <point x="694" y="1373" type="curve" smooth="yes"/>
      <point x="565" y="1373"/>
      <point x="494" y="1278"/>
      <point x="468" y="1164" type="curve"/>
      <point x="468" y="1468" type="line"/>
      <point x="816" y="1468" type="line"/>
      <point x="816" y="1638" type="line"/>
      <point x="468" y="1638" type="line"/>
      <point x="468" y="1769" type="line"/>
      <point x="112" y="1769" type="line"/>
      <point x="112" y="1638" type="line"/>
      <point x="0" y="1638" type="line"/>
      <point x="0" y="1468" type="line"/>
      <point x="112" y="1468" type="line"/>
      <point x="112" y="0" type="line"/>
      <point x="468" y="0" type="line"/>
      <point x="468" y="910" type="line" smooth="yes"/>
      <point x="468" y="993"/>
      <point x="475" y="1094"/>
    </contour>
  </outline>
</glyph>
<glyph name="Ibreve" format="1">
  <advance width="616"/>
  <unicode hex="012C"/>
  <outline>
    <contour>
      <point x="308" y="2134" type="curve" smooth="yes"/>
      <point x="225" y="2134"/>
      <point x="173" y="2152"/>
      <point x="173" y="2277" type="curve"/>
      <point x="-45" y="2277" type="line"/>
      <point x="-45" y="2262" type="line" smooth="yes"/>
      <point x="-45" y="2045"/>
      <point x="72" y="1944"/>
      <point x="306" y="1944" type="curve" smooth="yes"/>
      <point x="546" y="1944"/>
      <point x="661" y="2041"/>
      <point x="661" y="2264" type="curve" smooth="yes"/>
      <point x="661" y="2277" type="line"/>
      <point x="443" y="2277" type="line"/>
      <point x="443" y="2152"/>
      <point x="391" y="2134"/>
    </contour>
    <contour>
      <point x="488" y="1761" type="line"/>
      <point x="128" y="1761" type="line"/>
      <point x="128" y="0" type="line"/>
      <point x="488" y="0" type="line"/>
    </contour>
  </outline>
</glyph>
<glyph name="Lacute" format="1">
  <advance width="864"/>
  <unicode hex="0139"/>
  <outline>
    <contour>
      <point x="241.5" y="1944" type="line"/>
      <point x="716.5" y="2038" type="line"/>
      <point x="716.5" y="2385" type="line"/>
      <point x="241.5" y="2167" type="line"/>
    </contour>
    <contour>
      <point x="836.0" y="318" type="line"/>
      <point x="474.0" y="318" type="line"/>
      <point x="474.0" y="1761" type="line"/>
      <point x="122.0" y="1761" type="line"/>
      <point x="122.0" y="0" type="line"/>
      <point x="836.0" y="0" type="line"/>
    </contour>
  </outline>
</glyph>
<glyph name="Sacute" format="1">
  <advance width="973"/>
  <unicode hex="015A"/>
  <outline>
    <contour>
      <point x="264.5" y="1944" type="line"/>
      <point x="739.5" y="2038" type="line"/>
      <point x="739.5" y="2385" type="line"/>
      <point x="264.5" y="2167" type="line"/>
    </contour>
    <contour>
      <point x="512.0" y="-21" type="curve" smooth="yes"/>
      <point x="828.0" y="-21"/>
      <point x="919.0" y="153"/>
      <point x="919.0" y="484" type="curve" smooth="yes"/>
      <point x="919.0" y="723"/>
      <point x="819.0" y="841"/>
      <point x="693.0" y="981" type="curve" smooth="yes"/>
      <point x="510.0" y="1185" type="line" smooth="yes"/>
      <point x="430.0" y="1275"/>
      <point x="418.0" y="1334"/>
      <point x="418.0" y="1383" type="curve" smooth="yes"/>
      <point x="418.0" y="1452"/>
      <point x="453.0" y="1474"/>
      <point x="498.0" y="1474" type="curve" smooth="yes"/>
      <point x="532.0" y="1474"/>
      <point x="581.0" y="1453"/>
      <point x="581.0" y="1361" type="curve" smooth="yes"/>
      <point x="581.0" y="1224" type="line"/>
      <point x="900.0" y="1224" type="line"/>
      <point x="900.0" y="1339" type="line" smooth="yes"/>
      <point x="900.0" y="1693"/>
      <point x="780.0" y="1781"/>
      <point x="503.0" y="1781" type="curve" smooth="yes"/>
      <point x="238.0" y="1781"/>
      <point x="85.0" y="1668"/>
      <point x="85.0" y="1355" type="curve" smooth="yes"/>
      <point x="85.0" y="1182"/>
      <point x="134.0" y="1038"/>
      <point x="253.0" y="909" type="curve" smooth="yes"/>
      <point x="404.0" y="746" type="line" smooth="yes"/>
      <point x="531.0" y="608"/>
      <point x="581.0" y="551"/>
      <point x="581.0" y="419" type="curve" smooth="yes"/>
      <point x="581.0" y="333"/>
      <point x="556.0" y="294"/>
      <point x="503.0" y="294" type="curve" smooth="yes"/>
      <point x="449.0" y="294"/>
      <point x="421.0" y="327"/>
      <point x="421.0" y="440" type="curve" smooth="yes"/>
      <point x="421.0" y="610" type="line"/>
      <point x="89.0" y="610" type="line"/>
      <point x="89.0" y="473" type="line" smooth="yes"/>
      <point x="89.0" y="123"/>
      <point x="206.0" y="-21"/>
    </contour>
  </outline>
</glyph>
<glyph name="Tcaron" format="1">
  <advance width="834"/>
  <unicode hex="0164"/>
  <outline>
    <contour>
      <point x="621" y="1944" type="line"/>
      <point x="862" y="2347" type="line"/>
      <point x="503" y="2347" type="line"/>
      <point x="417" y="2062" type="line"/>
      <point x="331" y="2347" type="line"/>
      <point x="-28" y="2347" type="line"/>
      <point x="213" y="1944" type="line"/>
    </contour>
    <contour>
      <point x="237" y="1439" type="line"/>
      <point x="237" y="0" type="line"/>
      <point x="597" y="0" type="line"/>
      <point x="597" y="1439" type="line"/>
      <point x="802" y="1439" type="line"/>
      <point x="802" y="1761" type="line"/>
      <point x="32" y="1761" type="line"/>
      <point x="32" y="1439" type="line"/>
    </contour>
  </outline>
</glyph>
<glyph name="tcaron" format="1">
  <advance width="688"/>
  <unicode hex="0165"/>
  <outline>
    <contour>
      <point x="924.5" y="1115" type="line"/>
      <point x="1092.5" y="1115" type="line"/>
      <point x="1194.5" y="1452" type="line"/>
      <point x="1194.5" y="1761" type="line"/>
      <point x="863.5" y="1761" type="line"/>
      <point x="863.5" y="1443" type="line"/>
      <point x="990.5" y="1443" type="line"/>
    </contour>
    <contour>
      <point x="395.0" y="-9" type="curve" smooth="yes"/>
      <point x="482.0" y="-9"/>
      <point x="595.0" y="-3"/>
      <point x="619.0" y="0" type="curve"/>
      <point x="619.0" y="252" type="line"/>
      <point x="611.0" y="251"/>
      <point x="599.0" y="250"/>
      <point x="586.0" y="250" type="curve" smooth="yes"/>
      <point x="548.0" y="250"/>
      <point x="497.0" y="261"/>
      <point x="497.0" y="328" type="curve" smooth="yes"/>
      <point x="497.0" y="1190" type="line"/>
      <point x="619.0" y="1190" type="line"/>
      <point x="619.0" y="1440" type="line"/>
      <point x="497.0" y="1440" type="line"/>
      <point x="497.0" y="1761" type="line"/>
      <point x="149.0" y="1761" type="line"/>
      <point x="149.0" y="1440" type="line"/>
      <point x="48.0" y="1440" type="line"/>
      <point x="48.0" y="1190" type="line"/>
      <point x="149.0" y="1190" type="line"/>
      <point x="149.0" y="240" type="line" smooth="yes"/>
      <point x="149.0" y="71"/>
      <point x="202.0" y="-9"/>
    </contour>
  </outline>
</glyph>
<glyph name="Ycircumflex" format="1">
  <advance width="931"/>
  <unicode hex="0176"/>
  <outline>
    <contour>
      <point x="669.5" y="2347" type="line"/>
      <point x="261.5" y="2347" type="line"/>
      <point x="20.5" y="1944" type="line"/>
      <point x="379.5" y="1944" type="line"/>
      <point x="465.5" y="2229" type="line"/>
      <point x="551.5" y="1944" type="line"/>
      <point x="910.5" y="1944" type="line"/>
    </contour>
    <contour>
      <point x="912.0" y="1761" type="line"/>
      <point x="589.0" y="1761" type="line"/>
      <point x="474.0" y="1156" type="line"/>
      <point x="469.0" y="1156" type="line"/>
      <point x="346.0" y="1761" type="line"/>
      <point x="19.0" y="1761" type="line"/>
      <point x="300.0" y="649" type="line"/>
      <point x="300.0" y="0" type="line"/>
      <point x="632.0" y="0" type="line"/>
      <point x="632.0" y="649" type="line"/>
    </contour>
  </outline>
</glyph>
<glyph name="uni01F1" format="1">
  <advance width="1987"/>
  <unicode hex="01F1"/>
  <outline>
    <contour>
      <point x="1922" y="318" type="line"/>
      <point x="1564" y="318" type="line"/>
      <point x="1930" y="1454" type="line"/>
      <point x="1930" y="1761" type="line"/>
      <point x="1214" y="1761" type="line"/>
      <point x="1214" y="1440" type="line"/>
      <point x="1549" y="1440" type="line"/>
      <point x="1181" y="325" type="line"/>
      <point x="1181" y="0" type="line"/>
      <point x="1922" y="0" type="line"/>
    </contour>
    <contour>
      <point x="644" y="364" type="line" smooth="yes"/>
      <point x="644" y="301"/>
      <point x="610" y="270"/>
      <point x="543" y="270" type="curve" smooth="yes"/>
      <point x="482" y="270" type="line"/>
      <point x="482" y="1490" type="line"/>
      <point x="521" y="1490" type="line" smooth="yes"/>
      <point x="621" y="1490"/>
      <point x="644" y="1440"/>
      <point x="644" y="1323" type="curve" smooth="yes"/>
    </contour>
    <contour>
      <point x="1004" y="1347" type="line" smooth="yes"/>
      <point x="1004" y="1617"/>
      <point x="866" y="1761"/>
      <point x="613" y="1761" type="curve" smooth="yes"/>
      <point x="122" y="1761" type="line"/>
      <point x="122" y="0" type="line"/>
      <point x="601" y="0" type="line" smooth="yes"/>
      <point x="893" y="0"/>
      <point x="1004" y="189"/>
      <point x="1004" y="522" type="curve" smooth="yes"/>
    </contour>
  </outline>
</glyph>
<glyph name="uni01F2" format="1">
  <advance width="1930"/>
  <unicode hex="01F2"/>
  <outline>
    <contour>
      <point x="1854" y="294" type="line"/>
      <point x="1540" y="294" type="line"/>
      <point x="1868" y="1233" type="line"/>
      <point x="1868" y="1500" type="line"/>
      <point x="1209" y="1500" type="line"/>
      <point x="1209" y="1197" type="line"/>
      <point x="1514" y="1197" type="line"/>
      <point x="1184" y="272" type="line"/>
      <point x="1184" y="0" type="line"/>
      <point x="1854" y="0" type="line"/>
    </contour>
    <contour>
      <point x="644" y="364" type="line" smooth="yes"/>
      <point x="644" y="301"/>
      <point x="610" y="270"/>
      <point x="543" y="270" type="curve" smooth="yes"/>
      <point x="482" y="270" type="line"/>
      <point x="482" y="1490" type="line"/>
      <point x="521" y="1490" type="line" smooth="yes"/>
      <point x="621" y="1490"/>
      <point x="644" y="1440"/>
      <point x="644" y="1323" type="curve" smooth="yes"/>
    </contour>
    <contour>
      <point x="1004" y="1347" type="line" smooth="yes"/>
      <point x="1004" y="1617"/>
      <point x="866" y="1761"/>
      <point x="613" y="1761" type="curve" smooth="yes"/>
      <point x="122" y="1761" type="line"/>
      <point x="122" y="0" type="line"/>
      <point x="601" y="0" type="line" smooth="yes"/>
      <point x="893" y="0"/>
      <point x="1004" y="189"/>
      <point x="1004" y="522" type="curve" smooth="yes"/>
    </contour>
  </outline>
</glyph>
<glyph name="uni01F3" format="1">
  <advance width="1915"/>
  <unicode hex="01F3"/>
  <outline>
    <contour>
      <point x="1839" y="294" type="line"/>
      <point x="1525" y="294" type="line"/>
      <point x="1853" y="1233" type="line"/>
      <point x="1853" y="1500" type="line"/>
      <point x="1194" y="1500" type="line"/>
      <point x="1194" y="1197" type="line"/>
      <point x="1499" y="1197" type="line"/>
      <point x="1169" y="272" type="line"/>
      <point x="1169" y="0" type="line"/>
      <point x="1839" y="0" type="line"/>
    </contour>
    <contour>
      <point x="542" y="1239" type="curve" smooth="yes"/>
      <point x="612" y="1239"/>
      <point x="626" y="1153"/>
      <point x="626" y="1083" type="curve" smooth="yes"/>
      <point x="626" y="520" type="line" smooth="yes"/>
      <point x="626" y="422"/>
      <point x="638" y="264"/>
      <point x="540" y="264" type="curve" smooth="yes"/>
      <point x="483" y="264"/>
      <point x="454" y="327"/>
      <point x="454" y="452" type="curve" smooth="yes"/>
      <point x="454" y="1083" type="line" smooth="yes"/>
      <point x="454" y="1160"/>
      <point x="465" y="1239"/>
    </contour>
    <contour>
      <point x="403" y="-18" type="curve" smooth="yes"/>
      <point x="528" y="-18"/>
      <point x="586" y="51"/>
      <point x="626" y="159" type="curve"/>
      <point x="626" y="0" type="line"/>
      <point x="982" y="0" type="line"/>
      <point x="982" y="1767" type="line"/>
      <point x="626" y="1767" type="line"/>
      <point x="626" y="1419" type="line"/>
      <point x="577" y="1485"/>
      <point x="504" y="1518"/>
      <point x="409" y="1518" type="curve" smooth="yes"/>
      <point x="204" y="1518"/>
      <point x="98" y="1357"/>
      <point x="98" y="1153" type="curve" smooth="yes"/>
      <point x="98" y="477" type="line" smooth="yes"/>
      <point x="98" y="201"/>
      <point x="126" y="-18"/>
    </contour>
  </outline>
</glyph>
<glyph name="uni0208" format="1">
  <advance width="616"/>
  <unicode hex="0208"/>
  <outline>
    <contour>
      <point x="128.5" y="2481" type="line"/>
      <point x="-105.5" y="2373" type="line"/>
      <point x="183.5" y="1944" type="line"/>
      <point x="349.5" y="2002" type="line"/>
    </contour>
    <contour>
      <point x="537.5" y="2481" type="line"/>
      <point x="307.5" y="2373" type="line"/>
      <point x="555.5" y="1944" type="line"/>
      <point x="721.5" y="2002" type="line"/>
    </contour>
    <contour>
      <point x="488.0" y="1761" type="line"/>
      <point x="128.0" y="1761" type="line"/>
      <point x="128.0" y="0" type="line"/>
      <point x="488.0" y="0" type="line"/>
    </contour>
  </outline>
</glyph>
<glyph name="uni020D" format="1">
  <advance width="1076"/>
  <unicode hex="020D"/>
  <outline>
    <contour>
      <point x="358.5" y="2218" type="line"/>
      <point x="124.5" y="2110" type="line"/>
      <point x="413.5" y="1681" type="line"/>
      <point x="579.5" y="1739" type="line"/>
    </contour>
    <contour>
      <point x="767.5" y="2218" type="line"/>
      <point x="537.5" y="2110" type="line"/>
      <point x="785.5" y="1681" type="line"/>
      <point x="951.5" y="1739" type="line"/>
    </contour>
    <contour>
      <point x="538.0" y="260" type="curve" smooth="yes"/>
      <point x="478.0" y="260"/>
      <point x="454.0" y="308"/>
      <point x="454.0" y="375" type="curve" smooth="yes"/>
      <point x="454.0" y="1108" type="line" smooth="yes"/>
      <point x="454.0" y="1195"/>
      <point x="482.0" y="1239"/>
      <point x="538.0" y="1239" type="curve" smooth="yes"/>
      <point x="594.0" y="1239"/>
      <point x="622.0" y="1195"/>
      <point x="622.0" y="1108" type="curve" smooth="yes"/>
      <point x="622.0" y="375" type="line" smooth="yes"/>
      <point x="622.0" y="308"/>
      <point x="598.0" y="260"/>
    </contour>
    <contour>
      <point x="978.0" y="1051" type="line" smooth="yes"/>
      <point x="978.0" y="1334"/>
      <point x="819.0" y="1518"/>
      <point x="538.0" y="1518" type="curve" smooth="yes"/>
      <point x="258.0" y="1518"/>
      <point x="98.0" y="1333"/>
      <point x="98.0" y="1051" type="curve" smooth="yes"/>
      <point x="98.0" y="449" type="line" smooth="yes"/>
      <point x="98.0" y="138"/>
      <point x="239.0" y="-18"/>
      <point x="538.0" y="-18" type="curve" smooth="yes"/>
      <point x="839.0" y="-18"/>
      <point x="978.0" y="143"/>
      <point x="978.0" y="449" type="curve" smooth="yes"/>
    </contour>
  </outline>
</glyph>
<glyph name="uni020E" format="1">
  <advance width="1096"/>
  <unicode hex="020E"/>
  <outline>
    <contour>
      <point x="548" y="2087" type="curve" smooth="yes"/>
      <point x="631" y="2087"/>
      <point x="683" y="2069"/>
      <point x="683" y="1944" type="curve"/>
      <point x="901" y="1944" type="line"/>
      <point x="901" y="1959" type="line" smooth="yes"/>
      <point x="901" y="2176"/>
      <point x="784" y="2277"/>
      <point x="550" y="2277" type="curve" smooth="yes"/>
      <point x="310" y="2277"/>
      <point x="195" y="2180"/>
      <point x="195" y="1957" type="curve" smooth="yes"/>
      <point x="195" y="1944" type="line"/>
      <point x="413" y="1944" type="line"/>
      <point x="413" y="2069"/>
      <point x="465" y="2087"/>
    </contour>
    <contour>
      <point x="465" y="1328" type="line" smooth="yes"/>
      <point x="465" y="1403"/>
      <point x="483" y="1466"/>
      <point x="551" y="1466" type="curve" smooth="yes"/>
      <point x="621" y="1466"/>
      <point x="631" y="1394"/>
      <point x="631" y="1327" type="curve" smooth="yes"/>
      <point x="631" y="470" type="line" smooth="yes"/>
      <point x="631" y="385"/>
      <point x="628" y="294"/>
      <point x="551" y="294" type="curve" smooth="yes"/>
      <point x="469" y="294"/>
      <point x="465" y="378"/>
      <point x="465" y="470" type="curve" smooth="yes"/>
    </contour>
    <contour>
      <point x="551" y="-21" type="curve" smooth="yes"/>
      <point x="839" y="-21"/>
      <point x="991" y="162"/>
      <point x="991" y="475" type="curve" smooth="yes"/>
      <point x="991" y="1316" type="line" smooth="yes"/>
      <point x="991" y="1619"/>
      <point x="833" y="1781"/>
      <point x="551" y="1781" type="curve" smooth="yes"/>
      <point x="269" y="1781"/>
      <point x="105" y="1619"/>
      <point x="105" y="1316" type="curve" smooth="yes"/>
      <point x="105" y="475" type="line" smooth="yes"/>
      <point x="105" y="162"/>
      <point x="263" y="-21"/>
    </contour>
  </outline>
</glyph>
<glyph name="uni0211" format="1">
  <advance width="759"/>
  <unicode hex="0211"/>
  <outline>
    <contour>
      <point x="240.697265625" y="2218" type="line"/>
      <point x="6.697265625" y="2110" type="line"/>
      <point x="295.697265625" y="1681" type="line"/>
      <point x="461.697265625" y="1739" type="line"/>
    </contour>
    <contour>
      <point x="649.697265625" y="2218" type="line"/>
      <point x="419.697265625" y="2110" type="line"/>
      <point x="667.697265625" y="1681" type="line"/>
      <point x="833.697265625" y="1739" type="line"/>
    </contour>
    <contour>
      <point x="470.0" y="1147" type="line" smooth="yes"/>
      <point x="470.0" y="1187"/>
      <point x="640.0" y="1219"/>
      <point x="728.0" y="1219" type="curve"/>
      <point x="728.0" y="1219"/>
      <point x="730.0" y="1518"/>
      <point x="725.0" y="1518" type="curve" smooth="yes"/>
      <point x="592.0" y="1518"/>
      <point x="504.0" y="1449"/>
      <point x="470.0" y="1333" type="curve"/>
      <point x="470.0" y="1500" type="line"/>
      <point x="112.0" y="1500" type="line"/>
      <point x="112.0" y="0" type="line"/>
      <point x="470.0" y="0" type="line"/>
    </contour>
  </outline>
</glyph>
<glyph name="uni021B" format="1">
  <advance width="688"/>
  <unicode hex="021B"/>
  <outline>
    <contour>
      <point x="229" y="-828" type="line"/>
      <point x="397" y="-828" type="line"/>
      <point x="499" y="-491" type="line"/>
      <point x="499" y="-182" type="line"/>
      <point x="168" y="-182" type="line"/>
      <point x="168" y="-500" type="line"/>
      <point x="295" y="-500" type="line"/>
    </contour>
    <contour>
      <point x="395" y="-9" type="curve" smooth="yes"/>
      <point x="482" y="-9"/>
      <point x="595" y="-3"/>
      <point x="619" y="0" type="curve"/>
      <point x="619" y="252" type="line"/>
      <point x="611" y="251"/>
      <point x="599" y="250"/>
      <point x="586" y="250" type="curve" smooth="yes"/>
      <point x="548" y="250"/>
      <point x="497" y="261"/>
      <point x="497" y="328" type="curve" smooth="yes"/>
      <point x="497" y="1190" type="line"/>
      <point x="619" y="1190" type="line"/>
      <point x="619" y="1440" type="line"/>
      <point x="497" y="1440" type="line"/>
      <point x="497" y="1761" type="line"/>
      <point x="149" y="1761" type="line"/>
      <point x="149" y="1440" type="line"/>
      <point x="48" y="1440" type="line"/>
      <point x="48" y="1190" type="line"/>
      <point x="149" y="1190" type="line"/>
      <point x="149" y="240" type="line" smooth="yes"/>
      <point x="149" y="71"/>
      <point x="202" y="-9"/>
    </contour>
  </outline>
</glyph>
<glyph name="uni1E03" format="1">
  <advance width="1093"/>
  <unicode hex="1E03"/>
  <outline>
    <contour>
      <point x="374.5" y="1932" type="line"/>
      <point x="732.5" y="1932" type="line"/>
      <point x="732.5" y="2230" type="line"/>
      <point x="374.5" y="2230" type="line"/>
    </contour>
    <contour>
      <point x="560.0" y="1239" type="curve" smooth="yes"/>
      <point x="630.0" y="1239"/>
      <point x="639.0" y="1171"/>
      <point x="639.0" y="1081" type="curve" smooth="yes"/>
      <point x="639.0" y="457" type="line" smooth="yes"/>
      <point x="639.0" y="347"/>
      <point x="641.0" y="263"/>
      <point x="562.0" y="263" type="curve" smooth="yes"/>
      <point x="479.0" y="263"/>
      <point x="468.0" y="349"/>
      <point x="468.0" y="457" type="curve" smooth="yes"/>
      <point x="468.0" y="1085" type="line" smooth="yes"/>
      <point x="468.0" y="1175"/>
      <point x="488.0" y="1239"/>
    </contour>
    <contour>
      <point x="995.0" y="1114" type="line" smooth="yes"/>
      <point x="995.0" y="1360"/>
      <point x="912.0" y="1519"/>
      <point x="668.0" y="1519" type="curve" smooth="yes"/>
      <point x="595.0" y="1519"/>
      <point x="528.0" y="1488"/>
      <point x="468.0" y="1427" type="curve"/>
      <point x="468.0" y="1769" type="line"/>
      <point x="112.0" y="1769" type="line"/>
      <point x="112.0" y="0" type="line"/>
      <point x="468.0" y="0" type="line"/>
      <point x="468.0" y="160" type="line"/>
      <point x="512.0" y="41"/>
      <point x="582.0" y="-18"/>
      <point x="679.0" y="-18" type="curve" smooth="yes"/>
      <point x="903.0" y="-18"/>
      <point x="995.0" y="160"/>
      <point x="995.0" y="391" type="curve" smooth="yes"/>
    </contour>
  </outline>
</glyph>
<glyph name="uni1E6B" format="1">
  <advance width="688"/>
  <unicode hex="1E6B"/>
  <outline>
    <contour>
      <point x="154.5" y="1924" type="line"/>
      <point x="512.5" y="1924" type="line"/>
      <point x="512.5" y="2222" type="line"/>
      <point x="154.5" y="2222" type="line"/>
    </contour>
    <contour>
      <point x="395.0" y="-9" type="curve" smooth="yes"/>
      <point x="482.0" y="-9"/>
      <point x="595.0" y="-3"/>
      <point x="619.0" y="0" type="curve"/>
      <point x="619.0" y="252" type="line"/>
      <point x="611.0" y="251"/>
      <point x="599.0" y="250"/>
      <point x="586.0" y="250" type="curve" smooth="yes"/>
      <point x="548.0" y="250"/>
      <point x="497.0" y="261"/>
      <point x="497.0" y="328" type="curve" smooth="yes"/>
      <point x="497.0" y="1190" type="line"/>
      <point x="619.0" y="1190" type="line"/>
      <point x="619.0" y="1440" type="line"/>
      <point x="497.0" y="1440" type="line"/>
      <point x="497.0" y="1761" type="line"/>
      <point x="149.0" y="1761" type="line"/>
      <point x="149.0" y="1440" type="line"/>
      <point x="48.0" y="1440" type="line"/>
      <point x="48.0" y="1190" type="line"/>
      <point x="149.0" y="1190" type="line"/>
      <point x="149.0" y="240" type="line" smooth="yes"/>
      <point x="149.0" y="71"/>
      <point x="202.0" y="-9"/>
    </contour>
  </outline>
</glyph>
<glyph name="wacute" format="1">
  <advance width="1449"/>
  <unicode hex="1E83"/>
  <outline>
    <contour>
      <point x="487" y="1681" type="line"/>
      <point x="962" y="1775" type="line"/>
      <point x="962" y="2122" type="line"/>
      <point x="487" y="1904" type="line"/>
    </contour>
    <contour>
      <point x="477" y="570" type="line"/>
      <point x="369" y="1500" type="line"/>
      <point x="56" y="1500" type="line"/>
      <point x="265" y="0" type="line"/>
      <point x="621" y="0" type="line"/>
      <point x="725" y="911" type="line"/>
      <point x="833" y="0" type="line"/>
      <point x="1189" y="0" type="line"/>
      <point x="1393" y="1500" type="line"/>
      <point x="1083" y="1500" type="line"/>
      <point x="985" y="570" type="line"/>
      <point x="869" y="1500" type="line"/>
      <point x="562" y="1500" type="line"/>
    </contour>
  </outline>
</glyph>
<glyph name="quotedblbase" format="1">
  <advance width="1016"/>
  <unicode hex="201E"/>
  <outline>
    <contour>
      <point x="188" y="-330" type="line"/>
      <point x="399" y="-330" type="line"/>
      <point x="501" y="8" type="line"/>
      <point x="501" y="304" type="line"/>
      <point x="127" y="304" type="line"/>
      <point x="127" y="0" type="line"/>
      <point x="254" y="0" type="line"/>
    </contour>
    <contour>
      <point x="669" y="-330" type="line"/>
      <point x="880" y="-330" type="line"/>
      <point x="982" y="8" type="line"/>
      <point x="982" y="304" type="line"/>
      <point x="608" y="304" type="line"/>
      <point x="608" y="0" type="line"/>
      <point x="735" y="0" type="line"/>
    </contour>
  </outline>
</glyph>
